<svg width="128" height="128" viewBox="0 0 128 128" fill="none" xmlns="http://www.w3.org/2000/svg">
  <g opacity="0.8">
    <!-- Heart shape -->
    <path d="M64 105c-25-20-45-35-45-55 0-15 12-25 25-25 8 0 15 4 20 10 5-6 12-10 20-10 13 0 25 10 25 25 0 20-20 35-45 55z" fill="currentColor" opacity="0.6"/>
    <path d="M64 100c-22-18-40-32-40-50 0-13 10-22 22-22 7 0 13 3 18 9 5-6 11-9 18-9 12 0 22 9 22 22 0 18-18 32-40 50z" stroke="currentColor" stroke-width="2" fill="none" opacity="0.8"/>
    
    <!-- Caring hands underneath -->
    <path d="M35 75c-3 5-5 10-3 15 2 8 10 12 18 10l8-2" stroke="currentColor" stroke-width="2.5" fill="none" opacity="0.7"/>
    <path d="M93 75c3 5 5 10 3 15-2 8-10 12-18 10l-8-2" stroke="currentColor" stroke-width="2.5" fill="none" opacity="0.7"/>
    
    <!-- Small sparkles around heart -->
    <circle cx="45" cy="40" r="1.5" fill="currentColor" opacity="0.8"/>
    <circle cx="85" cy="45" r="1.5" fill="currentColor" opacity="0.8"/>
    <circle cx="40" cy="60" r="1" fill="currentColor" opacity="0.7"/>
    <circle cx="90" cy="60" r="1" fill="currentColor" opacity="0.7"/>
    <circle cx="50" cy="25" r="1" fill="currentColor" opacity="0.6"/>
    <circle cx="78" cy="28" r="1" fill="currentColor" opacity="0.6"/>
    
    <!-- Small stars -->
    <path d="M35 30l2-2 2 2-2 2-2-2z" fill="currentColor" opacity="0.5"/>
    <path d="M95 35l1.5-1.5 1.5 1.5-1.5 1.5-1.5-1.5z" fill="currentColor" opacity="0.5"/>
  </g>
</svg>