<svg width="128" height="128" viewBox="0 0 128 128" fill="none" xmlns="http://www.w3.org/2000/svg">
  <g opacity="0.8">
    <!-- Bowl -->
    <ellipse cx="64" cy="85" rx="45" ry="8" fill="currentColor" opacity="0.3"/>
    <path d="M19 75c0 15 20 25 45 25s45-10 45-25V65c0-5-20-8-45-8s-45 3-45 8v10z" fill="currentColor" opacity="0.7"/>
    
    <!-- Noodles -->
    <path d="M35 65c5-10 15-8 20 0s10 10 15-5 10-8 15 0" stroke="currentColor" stroke-width="2" fill="none" opacity="0.9"/>
    <path d="M30 70c8-8 12-5 18 2s8 8 16-2 12-6 18 2" stroke="currentColor" stroke-width="2" fill="none" opacity="0.8"/>
    <path d="M32 75c6-6 10-3 14 3s6 6 12-3 10-4 14 3" stroke="currentColor" stroke-width="2" fill="none" opacity="0.7"/>
    
    <!-- Chopsticks -->
    <line x1="75" y1="25" x2="85" y2="65" stroke="currentColor" stroke-width="3" opacity="0.8"/>
    <line x1="80" y1="22" x2="90" y2="62" stroke="currentColor" stroke-width="3" opacity="0.8"/>
    
    <!-- Steam -->
    <path d="M45 45c0-8 2-12 0-18s2-8 0-12" stroke="currentColor" stroke-width="2" fill="none" opacity="0.6"/>
    <path d="M55 40c0-6 2-10 0-14s2-6 0-10" stroke="currentColor" stroke-width="2" fill="none" opacity="0.5"/>
    <path d="M65 42c0-7 2-11 0-16s2-7 0-11" stroke="currentColor" stroke-width="2" fill="none" opacity="0.4"/>
  </g>
</svg>