<!-- Theme sprite: Sunset Glow -->
<svg xmlns="http://www.w3.org/2000/svg" aria-hidden="true" focusable="false" width="0" height="0" style="position:absolute; width:0; height:0; overflow:hidden">
  <!-- Sun / Theme icon -->
  <symbol id="theme" viewBox="0 0 24 24">
    <circle cx="12" cy="12" r="4" fill="currentColor"></circle>
    <g stroke="currentColor" stroke-width="2" stroke-linecap="round">
      <line x1="12" y1="1" x2="12" y2="4"></line>
      <line x1="12" y1="20" x2="12" y2="23"></line>
      <line x1="1" y1="12" x2="4" y2="12"></line>
      <line x1="20" y1="12" x2="23" y2="12"></line>
      <line x1="4.22" y1="4.22" x2="6.34" y2="6.34"></line>
      <line x1="17.66" y1="17.66" x2="19.78" y2="19.78"></line>
      <line x1="4.22" y1="19.78" x2="6.34" y2="17.66"></line>
      <line x1="17.66" y1="6.34" x2="19.78" y2="4.22"></line>
    </g>
  </symbol>

  <!-- Pencil -->
  <symbol id="pencil" viewBox="0 0 24 24">
    <path fill="currentColor" d="M3 17.25V21h3.75L17.81 9.94l-3.75-3.75L3 17.25zM20.71 7.04c.39-.39.39-1.02 0-1.41L18.37 3.29c-.39-.39-1.02-.39-1.41 0l-1.83 1.83 3.75 3.75 1.83-1.83z"/>
  </symbol>

  <!-- Link -->
  <symbol id="link" viewBox="0 0 24 24">
    <path fill="none" stroke="currentColor" stroke-width="2" stroke-linecap="round" d="M10 13a5 5 0 0 1 0-7l1.17-1.17a5 5 0 0 1 7.07 7.07L17 12"/>
    <path fill="none" stroke="currentColor" stroke-width="2" stroke-linecap="round" d="M14 11a5 5 0 0 1 0 7L12.83 19.17a5 5 0 0 1-7.07-7.07L7 12"/>
  </symbol>

  <!-- Image -->
  <symbol id="image" viewBox="0 0 24 24">
    <rect x="3" y="5" width="18" height="14" rx="2" ry="2" fill="none" stroke="currentColor" stroke-width="2"/>
    <circle cx="8" cy="10" r="2" fill="currentColor"/>
    <path fill="currentColor" d="M6 17h12l-4.5-6-3.5 4.5L8.5 12z"/>
  </symbol>

  <!-- Quote -->
  <symbol id="quote" viewBox="0 0 24 24">
    <path fill="currentColor" d="M7 7h5v5H9v5H5v-5a5 5 0 0 1 2-5zm10 0h5v5h-3v5h-4v-5a5 5 0 0 1 2-5z"/>
  </symbol>
</svg>