<!-- Sprite: Rajasthan Holi (core: Heroicons-like; balanced strokes for colorful UI) -->
<svg xmlns="http://www.w3.org/2000/svg" style="display:none" aria-hidden="true">
  <!-- menu -->
  <symbol id="menu" viewBox="0 0 24 24">
    <path d="M4 6h16M4 12h16M4 18h16" stroke="currentColor" stroke-width="2" stroke-linecap="round" stroke-linejoin="round" fill="none"/>
  </symbol>

  <!-- external-link -->
  <symbol id="external-link" viewBox="0 0 24 24">
    <path d="M10 14L21 3" stroke="currentColor" stroke-width="2" stroke-linecap="round" stroke-linejoin="round" fill="none"/>
    <path d="M14 3h7v7" stroke="currentColor" stroke-width="2" stroke-linecap="round" stroke-linejoin="round" fill="none"/>
    <path d="M21 14v5a2 2 0 0 1-2 2H7a2 2 0 0 1-2-2V9a2 2 0 0 1 2-2h5" stroke="currentColor" stroke-width="2" stroke-linecap="round" stroke-linejoin="round" fill="none"/>
  </symbol>

  <!-- chevron-right -->
  <symbol id="chevron-right" viewBox="0 0 24 24">
    <path d="M9 5l7 7-7 7" stroke="currentColor" stroke-width="2" stroke-linecap="round" stroke-linejoin="round" fill="none"/>
  </symbol>

  <!-- chevron-left -->
  <symbol id="chevron-left" viewBox="0 0 24 24">
    <path d="M15 5l-7 7 7 7" stroke="currentColor" stroke-width="2" stroke-linecap="round" stroke-linejoin="round" fill="none"/>
  </symbol>

  <!-- arrow-up-right -->
  <symbol id="arrow-up-right" viewBox="0 0 24 24">
    <path d="M7 17l10-10M9 7h8v8" stroke="currentColor" stroke-width="2" stroke-linecap="round" stroke-linejoin="round" fill="none"/>
  </symbol>

  <!-- mail -->
  <symbol id="mail" viewBox="0 0 24 24">
    <path d="M4 6h16a2 2 0 0 1 2 2v8a2 2 0 0 1-2 2H4a2 2 0 0 1-2-2V8a2 2 0 0 1 2-2z" stroke="currentColor" stroke-width="2" stroke-linecap="round" stroke-linejoin="round" fill="none"/>
    <path d="M22 8l-10 7L2 8" stroke="currentColor" stroke-width="2" stroke-linecap="round" stroke-linejoin="round" fill="none"/>
  </symbol>

  <!-- play -->
  <symbol id="play" viewBox="0 0 24 24">
    <path d="M8 5v14l11-7-11-7z" fill="currentColor"/>
  </symbol>

  <!-- pause -->
  <symbol id="pause" viewBox="0 0 24 24">
    <path d="M7 5h4v14H7zM13 5h4v14h-4z" fill="currentColor"/>
  </symbol>

  <!-- document -->
  <symbol id="document" viewBox="0 0 24 24">
    <path d="M7 3h8l5 5v13a1 1 0 0 1-1 1H7a1 1 0 0 1-1-1V4a1 1 0 0 1 1-1z" stroke="currentColor" stroke-width="2" stroke-linejoin="round" fill="none"/>
    <path d="M15 3v6h6" stroke="currentColor" stroke-width="2" stroke-linejoin="round" fill="none"/>
  </symbol>

  <!-- list -->
  <symbol id="list" viewBox="0 0 24 24">
    <path d="M8 6h13M8 12h13M8 18h13M4 6h.01M4 12h.01M4 18h.01" stroke="currentColor" stroke-width="2" stroke-linecap="round" fill="none"/>
  </symbol>

  <!-- theme (sun-duotone feel by outline + center) -->
  <symbol id="theme" viewBox="0 0 24 24">
    <circle cx="12" cy="12" r="4" stroke="currentColor" stroke-width="2" fill="none"/>
    <path d="M12 2v2M12 20v2M4.22 4.22l1.42 1.42M18.36 18.36l1.42 1.42M2 12h2M20 12h2M4.22 19.78l1.42-1.42M18.36 5.64l1.42-1.42" stroke="currentColor" stroke-width="2" stroke-linecap="round"/>
  </symbol>

  <!-- search -->
  <symbol id="search" viewBox="0 0 24 24">
    <circle cx="11" cy="11" r="7" stroke="currentColor" stroke-width="2" fill="none"/>
    <path d="M16.5 16.5L21 21" stroke="currentColor" stroke-width="2" stroke-linecap="round"/>
  </symbol>

  <!-- user -->
  <symbol id="user" viewBox="0 0 24 24">
    <circle cx="12" cy="8" r="4" stroke="currentColor" stroke-width="2" fill="none"/>
    <path d="M4 20a8 8 0 0 1 16 0" stroke="currentColor" stroke-width="2" stroke-linecap="round" fill="none"/>
  </symbol>

  <!-- calendar -->
  <symbol id="calendar" viewBox="0 0 24 24">
    <path d="M7 3v4M17 3v4M3 9h18M5 5h14a2 2 0 0 1 2 2v12a2 2 0 0 1-2 2H5a2 2 0 0 1-2-2V7a2 2 0 0 1 2-2z" stroke="currentColor" stroke-width="2" stroke-linecap="round" stroke-linejoin="round" fill="none"/>
  </symbol>

  <!-- pencil (blog/writing) -->
  <symbol id="pencil" viewBox="0 0 24 24">
    <path d="M3 17.25V21h3.75L17.8 9.94a2.5 2.5 0 0 0 0-3.54l-1.2-1.2a2.5 2.5 0 0 0-3.54 0L3 16.5" stroke="currentColor" stroke-width="2" stroke-linecap="round" stroke-linejoin="round" fill="none"/>
    <path d="M11 7l3 3" stroke="currentColor" stroke-width="2" stroke-linecap="round" fill="none"/>
  </symbol>

  <!-- link -->
  <symbol id="link" viewBox="0 0 24 24">
    <path d="M10 14a5 5 0 0 1 0-7l1.5-1.5a5 5 0 0 1 7 7L17 14" stroke="currentColor" stroke-width="2" stroke-linecap="round" stroke-linejoin="round" fill="none"/>
    <path d="M14 10a5 5 0 0 1 0 7L12.5 18.5a5 5 0 0 1-7-7L7 10" stroke="currentColor" stroke-width="2" stroke-linecap="round" stroke-linejoin="round" fill="none"/>
  </symbol>

  <!-- image -->
  <symbol id="image" viewBox="0 0 24 24">
    <rect x="3" y="5" width="18" height="14" rx="2" ry="2" stroke="currentColor" stroke-width="2" fill="none"/>
    <path d="M8 13l3-3 5 5" stroke="currentColor" stroke-width="2" stroke-linecap="round" stroke-linejoin="round" fill="none"/>
    <circle cx="8.5" cy="9" r="1.5" stroke="currentColor" stroke-width="2" fill="none"/>
  </symbol>

  <!-- quote -->
  <symbol id="quote" viewBox="0 0 24 24">
    <path d="M7 7h4v6H7a4 4 0 0 1 4-4" stroke="currentColor" stroke-width="2" stroke-linecap="round" stroke-linejoin="round" fill="none"/>
    <path d="M15 7h4v6h-4a4 4 0 0 1 4-4" stroke="currentColor" stroke-width="2" stroke-linecap="round" stroke-linejoin="round" fill="none"/>
  </symbol>
<!-- icon-spice (chili pepper) -->
  <symbol id="icon-spice" viewBox="0 0 24 24">
    <path d="M7 12c0 3 2.5 6 5.5 6c2.5 0 4.5-2 4.5-4.5c0-2-1.5-3.5-3.5-3.5c-1.2 0-2 .6-3 1.6L9 13" stroke="currentColor" stroke-width="2" stroke-linecap="round" stroke-linejoin="round" fill="none"/>
    <path d="M12 6c0-1.2.8-2 2-2h1" stroke="currentColor" stroke-width="2" stroke-linecap="round" stroke-linejoin="round" fill="none"/>
  </symbol>

  <!-- icon-holi (color palette) -->
  <symbol id="icon-holi" viewBox="0 0 24 24">
    <path d="M12 3a9 9 0 1 0 0 18h1a2 2 0 0 0 2-2 2 2 0 0 1 2-2h1a3 3 0 0 0 0-6h-1a2 2 0 0 1-2-2 2 2 0 0 0-2-2h-1z" stroke="currentColor" stroke-width="2" fill="none" stroke-linecap="round" stroke-linejoin="round"/>
    <circle cx="8" cy="10" r="1" fill="currentColor"/>
    <circle cx="10" cy="7.5" r="1" fill="currentColor"/>
    <circle cx="14" cy="7.5" r="1" fill="currentColor"/>
    <circle cx="16" cy="10" r="1" fill="currentColor"/>
  </symbol>

  <!-- icon-heritage (temple) -->
  <symbol id="icon-heritage" viewBox="0 0 24 24">
    <path d="M12 4l3 3H9l3-3z" stroke="currentColor" stroke-width="2" fill="none" stroke-linejoin="round"/>
    <path d="M9 7l-2 2h10l-2-2z" stroke="currentColor" stroke-width="2" fill="none" stroke-linejoin="round"/>
    <path d="M6 9l-2 3h16l-2-3z" stroke="currentColor" stroke-width="2" fill="none" stroke-linejoin="round"/>
    <path d="M4 12v7h16v-7z" stroke="currentColor" stroke-width="2" fill="none" stroke-linejoin="round"/>
    <path d="M9 12v7M15 12v7" stroke="currentColor" stroke-width="2" fill="none" stroke-linecap="round"/>
  </symbol>

  <!-- code (angle brackets) -->
  <symbol id="code" viewBox="0 0 24 24">
    <path d="M9 8l-4 4l4 4" stroke="currentColor" stroke-width="2" stroke-linecap="round" stroke-linejoin="round" fill="none"/>
    <path d="M15 8l4 4l-4 4" stroke="currentColor" stroke-width="2" stroke-linecap="round" stroke-linejoin="round" fill="none"/>
  </symbol>
</svg>